<?xml version="1.0" encoding="utf-8"?>
<!-- Generator: Adobe Illustrator 17.1.0, SVG Export Plug-In . SVG Version: 6.00 Build 0)  -->
<!DOCTYPE svg PUBLIC "-//W3C//DTD SVG 1.1//EN" "http://www.w3.org/Graphics/SVG/1.1/DTD/svg11.dtd">
<svg version="1.1" xmlns="http://www.w3.org/2000/svg" xmlns:xlink="http://www.w3.org/1999/xlink" x="0px" y="0px"
	 viewBox="0 0 10 14.266" style="enable-background:new 0 0 10 14.266;" xml:space="preserve">
<g id="trace" style="display:none;">
</g>
<g id="Layer_1">
	<g>
		<g>
			<g>
				<path d="M8.14,0.14c0.367,0.027,0.946,0.212,1.382,0.592c0.461,0.45,0.569,1.133,0.406,1.752
					c-0.146,0.552-0.307,0.839-0.872,1.22C8.489,4.092,7.801,4.059,7.801,4.059v2.39l1.165,0.942L7.801,8.333v3.261
					c0,0,1.166-0.672,1.89-2.165c0,0,0.03-0.084,0.097-0.241c0.065,0.404,0.028,1.217-0.427,2.257
					c-0.342,0.784-0.962,1.542-1.743,1.975c-1.383,0.764-2.421,0.839-3.53,0.608c-1.3-0.271-2.483-0.999-3.293-2.274
					c-0.563-0.897-0.817-1.942-0.794-3.07C0.048,6.48,1.686,4.579,3.583,3.866c0.232-0.084,0.322-0.143,0.649-0.171
					C4.082,3.797,3.909,3.928,3.694,4.07C3.083,4.474,2.558,5.271,2.337,5.885l3.677-1.639v5.142l-2.963,1.481
					c0.338,0.476,1.364,1.182,2.244,1.28c1.491,0.167,2.369-0.485,2.369-0.485L7.662,8.333L6.505,7.391l1.159-0.939V4.059
					c-0.631-0.074-1.4-0.283-1.847-0.395C5.156,3.501,2.956,2.885,2.611,2.833C2.265,2.784,1.841,2.799,1.582,3.028
					C1.324,3.262,1.164,3.672,1.274,4.039c0.061,0.21,0.205,0.331,0.314,0.449c0,0-0.127-0.01-0.358-0.146
					c-0.414-0.25-0.73-0.74-0.768-1.342C0.416,2.217,0.739,1.505,1.387,1.026C1.952,0.664,2.59,0.433,3.333,0.537
					c1.083,0.154,2.539,0.768,3.835,1.081c0.503,0.121,0.892,0.16,1.245-0.045c0.167-0.116,0.455-0.421,0.219-0.833
					C8.358,0.264,7.827,0.278,7.379,0.19C7.763,0.111,7.851,0.111,8.14,0.14z M3.767,10.36V5.394L2.271,6.064
					c0,0-0.38,0.85-0.313,2.087C2.01,9.12,2.55,10.276,2.966,10.76L3.767,10.36z"/>
			</g>
		</g>
	</g>
</g>
<g id="Layer_3" style="display:none;">
</g>
</svg>
